Coordinates
version=1
nRows=11
nColumns=40
inDegrees=yes

Units are S.I. units (second, meters, Newtons, ...)
Angles are in degrees.

endheader
time	pelvis_tilt	pelvis_list	pelvis_rotation	pelvis_tx	pelvis_ty	pelvis_tz	hip_flexion_r	hip_adduction_r	hip_rotation_r	knee_angle_r	knee_angle_r_beta	ankle_angle_r	subtalar_angle_r	mtp_angle_r	hip_flexion_l	hip_adduction_l	hip_rotation_l	knee_angle_l	knee_angle_l_beta	ankle_angle_l	subtalar_angle_l	mtp_angle_l	lumbar_extension	lumbar_bending	lumbar_rotation	arm_flex_r	arm_add_r	arm_rot_r	elbow_flex_r	pro_sup_r	wrist_flex_r	wrist_dev_r	arm_flex_l	arm_add_l	arm_rot_l	elbow_flex_l	pro_sup_l	wrist_flex_l	wrist_dev_l
      8.52750000	     -3.25215588	     -4.35605583	      6.52972414	      1.06484937	      0.92870889	      0.43450581	      3.69668745	     -2.37509713	    -15.56833552	     27.87918830	     27.87918830	     15.26162852	     -1.87831339	     -7.12781343	     22.43559623	     -5.29249492	     -2.44519993	     24.31510328	     24.31510328	      8.56041889	    -10.92160144	      2.00629692	     -8.52082338	      3.43129372	      4.47004010	     24.89124691	    -15.62768645	     -7.39850067	     54.36896902	     46.18677643	      0.00000000	      0.00000000	      3.39330876	     -8.99657651	     -6.13157355	     29.26553436	     46.02760645	      0.00000000	      0.00000000
      8.54085714	     -3.16238223	     -4.36462976	      6.39608297	      1.06510241	      0.92941980	      0.43157537	      4.61129397	     -2.88009529	    -14.99143886	     30.12081468	     30.12081468	     12.62972006	     -3.88164772	    -12.78793050	     21.74500561	     -5.15642321	     -2.47759829	     24.03704057	     24.03704057	      8.56029183	    -11.20578272	      1.25466359	     -8.42378715	      3.56966960	      2.70013646	     26.93835984	    -14.35993560	     -3.17807866	     44.64764763	     46.28669531	      0.00000000	      0.00000000	      2.88869123	     -9.73536665	     -5.35106357	     31.16892524	     45.91280333	      0.00000000	      0.00000000
      8.55421429	     -3.07952877	     -4.17724393	      6.17987233	      1.06519302	      0.92988728	      0.42871600	      6.01611547	     -3.76098804	    -14.39412679	     33.44387941	     33.44387941	     11.66212416	     -4.89301542	    -13.58589277	     21.06280152	     -4.86279043	     -2.75055172	     23.84831825	     23.84831825	      8.90086924	    -11.20657421	      1.11522745	     -8.63031252	      3.50084314	      2.99807721	     25.13258929	    -14.29859585	     -2.78504359	     43.06191457	     46.30918084	      0.00000000	      0.00000000	      4.10112905	     -9.91329468	     -5.37522533	     32.00352161	     45.93757563	      0.00000000	      0.00000000
      8.56757143	     -3.04651690	     -4.02267666	      5.94762394	      1.06522824	      0.93008141	      0.42601183	      7.62840502	     -4.56588226	    -13.64481557	     36.91435388	     36.91435388	     10.28988008	     -6.17960677	    -14.59381609	     20.49601860	     -4.59148671	     -2.94732792	     23.75130896	     23.75130896	      9.21214740	    -11.34468342	      0.94743114	     -8.70154510	      3.45568473	      3.32556923	     23.34761912	    -14.27367990	     -2.29457820	     41.01162401	     46.34429455	      0.00000000	      0.00000000	      5.30498906	    -10.07349584	     -5.33085518	     32.94113805	     45.95252358	      0.00000000	      0.00000000
      8.58092857	     -2.97893961	     -3.97987593	      5.73698764	      1.06516743	      0.93019293	      0.42341932	      9.13803504	     -5.08677838	    -12.70708552	     39.91053655	     39.91053655	      6.96123539	     -9.17918218	    -19.78981317	     19.94244359	     -4.41280906	     -2.97069607	     23.66969612	     23.66969612	      9.28009036	    -11.82332958	      0.36379942	     -8.73201768	      3.56564276	      2.73229357	     23.52489964	    -13.61836249	     -0.17007049	     34.62055886	     46.42867222	      0.00000000	      0.00000000	      5.50611751	    -10.76625972	     -4.14101225	     35.08503304	     45.82538054	      0.00000000	      0.00000000
      8.59428571	     -2.84229068	     -3.75214407	      5.52989596	      1.06504226	      0.93020748	      0.42083131	     10.86288228	     -5.96784779	    -12.01816920	     43.62525524	     43.62525524	      5.27835895	    -10.22779112	    -20.01083242	     19.35879412	     -4.09255534	     -3.21198099	     23.73083231	     23.73083231	      9.65320060	    -11.88335983	      0.18804902	     -8.97519364	      3.48394403	      2.68425794	     21.60577578	    -13.43079226	      0.04559124	     33.45444383	     46.44348241	      0.00000000	      0.00000000	      6.64638542	    -11.07862200	     -4.19942490	     35.94909543	     45.85420706	      0.00000000	      0.00000000
      8.60764286	     -2.76742741	     -3.59014819	      5.31911971	      1.06484545	      0.93002802	      0.41838075	     12.73420695	     -6.67865785	    -11.18511743	     47.28724059	     47.28724059	      3.26336196	    -11.54187785	    -20.04912563	     18.88578595	     -3.83129993	     -3.37867137	     23.82955503	     23.82955503	     10.03199918	    -12.02782513	      0.01821157	     -9.10166092	      3.46202752	      2.72630005	     19.58400125	    -13.34417348	      0.25666101	     32.05395909	     46.46778797	      0.00000000	      0.00000000	      7.77033722	    -11.35363578	     -4.22442859	     36.97641449	     45.87901736	      0.00000000	      0.00000000
      8.62100000	     -2.68941914	     -3.47831519	      5.09222026	      1.06457371	      0.92985046	      0.41610125	     14.62773940	     -7.23587474	    -10.29247607	     50.79832586	     50.79832586	      1.04775866	    -12.96585336	    -19.79675135	     18.43790520	     -3.63466334	     -3.54143791	     23.95506070	     23.95506070	     10.40665196	    -12.19453334	     -0.13765403	     -9.22338629	      3.50300105	      2.75249366	     17.55515337	    -13.29023637	      0.43019059	     30.58518696	     46.49744667	      0.00000000	      0.00000000	      8.81556683	    -11.63598692	     -4.20815538	     38.12179002	     45.89870162	      0.00000000	      0.00000000
      8.63435714	     -2.59763195	     -3.52424591	      4.86415094	      1.06428114	      0.92968930	      0.41407389	     16.50333236	     -7.46725725	     -9.34902476	     54.10592387	     54.10592387	     -1.03678494	    -14.36515132	    -18.51146784	     18.03642260	     -3.63776534	     -3.69466160	     24.15616917	     24.15616917	     10.88641975	    -12.24322917	     -0.23378186	     -9.34100273	      3.71740298	      2.43491585	     16.35538462	    -12.94980424	      0.41215345	     27.23589361	     46.60703298	      0.00000000	      0.00000000	      8.73891975	    -12.51370422	     -2.66160454	     41.66865120	     45.78467970	      0.00000000	      0.00000000
      8.64771429	     -2.50355752	     -3.43413550	      4.63060726	      1.06396310	      0.92958246	      0.41214980	     18.33403834	     -7.87854401	     -8.55476863	     57.20988597	     57.20988597	     -3.03488923	    -15.31732675	    -17.47592140	     17.56203219	     -3.50227126	     -3.91894200	     24.23956455	     24.23956455	     11.24127762	    -12.29012965	     -0.34268060	     -9.41817405	      3.72079018	      2.29376683	     14.24301469	    -12.93530266	      0.36758431	     26.27353669	     46.62953211	      0.00000000	      0.00000000	      9.75635792	    -12.81855194	     -2.74180072	     42.57290668	     45.81918443	      0.00000000	      0.00000000
      8.66107143	     -2.36365768	     -3.46031846	      4.41145298	      1.06357005	      0.92960708	      0.41029275	     20.05556254	     -8.05116061	     -7.78498289	     60.02632456	     60.02632456	     -4.23246686	    -15.81638521	    -14.37356033	     17.11329820	     -3.50846158	     -4.12539844	     24.44516561	     24.44516561	     11.77556942	    -12.17161185	     -0.43663073	     -9.68187018	      3.97236694	      2.46656721	     11.82764838	    -13.03336983	     -0.05897982	     25.42345924	     46.67216776	      0.00000000	      0.00000000	     10.73761781	    -13.11925939	     -2.63631911	     44.37112373	     45.85264924	      0.00000000	      0.00000000
